<?xml version="1.0" standalone="no"?>
<!DOCTYPE svg PUBLIC "-//W3C//DTD SVG 20010904//EN"
 "http://www.w3.org/TR/2001/REC-SVG-20010904/DTD/svg10.dtd">
<svg version="1.0" xmlns="http://www.w3.org/2000/svg"
 width="225.000000pt" height="225.000000pt" viewBox="0 0 225.000000 225.000000"
 preserveAspectRatio="xMidYMid meet">

<g transform="translate(0.000000,225.000000) scale(0.100000,-0.100000)"
fill="#000000" stroke="none">
<path d="M1052 2054 c-29 -20 -52 -65 -52 -101 0 -29 20 -64 58 -101 17 -17
22 -33 22 -74 l0 -53 -48 -15 c-41 -13 -49 -20 -61 -55 l-14 -40 -94 -22
c-196 -47 -308 -130 -352 -265 -12 -37 -18 -41 -78 -53 -37 -7 -58 -28 -49
-50 3 -9 2 -14 -3 -11 -5 3 -11 -3 -14 -14 -4 -15 -14 -20 -40 -20 -42 0 -67
-25 -67 -67 0 -25 6 -34 34 -47 19 -9 43 -16 54 -16 13 0 24 -10 30 -28 12
-36 38 -62 62 -62 14 0 21 13 32 58 l12 57 7 -105 c8 -141 13 -154 69 -195 68
-50 127 -74 238 -95 152 -29 286 -34 467 -16 244 24 413 73 450 130 9 13 21
54 28 92 l12 69 39 6 c40 7 63 27 72 65 4 16 16 23 45 27 54 7 69 22 69 68 0
42 -12 53 -71 64 -29 5 -38 13 -48 41 -13 36 -51 60 -78 50 -7 -3 -13 -20 -13
-40 0 -61 -17 -48 -22 18 -6 74 -42 153 -96 210 -49 51 -175 110 -284 133 -64
13 -88 22 -88 33 0 8 -9 29 -19 46 -15 25 -29 34 -60 39 l-41 7 0 53 c0 48 4
58 35 92 57 62 56 137 -3 183 -31 25 -108 27 -140 4z m327 -655 c106 -25 193
-77 235 -139 104 -158 7 -378 -176 -397 -75 -8 -129 10 -196 66 -116 96 -146
96 -248 1 -61 -58 -120 -75 -210 -60 -120 20 -188 92 -201 213 -18 174 97 291
322 327 74 11 410 4 474 -11z m-1078 -252 c-6 -8 -7 -18 -3 -22 4 -5 1 -5 -6
-1 -10 6 -10 11 -1 22 6 8 14 14 16 14 3 0 0 -6 -6 -13z"/>
<path d="M784 1240 c-41 -26 -58 -69 -51 -123 15 -111 168 -142 227 -45 24 39
25 73 6 119 -27 65 -119 89 -182 49z"/>
<path d="M1316 1226 c-31 -29 -36 -40 -36 -79 0 -55 13 -86 46 -111 87 -63
213 10 201 116 -9 70 -55 108 -132 108 -36 0 -50 -6 -79 -34z"/>
</g>
</svg>
